<svg width="39" height="38" viewBox="0 0 39 38" fill="none" xmlns="http://www.w3.org/2000/svg">
<path fill-rule="evenodd" clip-rule="evenodd" d="M31.7909 29.0763C32.4908 29.7719 32.4908 30.8997 31.7909 31.5954C30.1266 33.2494 28.1508 34.5615 25.9763 35.4566C23.8018 36.3518 21.4712 36.8125 19.1176 36.8125C16.7639 36.8125 14.4333 36.3518 12.2588 35.4566C10.0843 34.5615 8.10854 33.2494 6.44426 31.5954C5.74433 30.8997 5.74433 29.7719 6.44426 29.0763C7.14419 28.3807 8.27899 28.3807 8.97892 29.0763C10.3104 30.3995 11.891 31.4492 13.6306 32.1653C15.3702 32.8814 17.2347 33.25 19.1176 33.25C21.0005 33.25 22.865 32.8814 24.6046 32.1653C26.3442 31.4492 27.9248 30.3995 29.2563 29.0763C29.9562 28.3807 31.091 28.3807 31.7909 29.0763Z" fill="url(#paint0_linear_871_10336)"/>
<path fill-rule="evenodd" clip-rule="evenodd" d="M21.5613 3.05401C21.8175 2.10377 22.8002 1.53986 23.7564 1.79447C26.0298 2.3999 28.161 3.44442 30.0283 4.86842C31.8956 6.29242 33.4624 8.068 34.6392 10.0938C35.816 12.1196 36.5798 14.3559 36.8871 16.675C37.1943 18.9942 37.0389 21.3508 36.4297 23.6102C36.1735 24.5605 35.1907 25.1244 34.2346 24.8698C33.2785 24.6152 32.7111 23.6384 32.9673 22.6882C33.4546 20.8806 33.5789 18.9954 33.3332 17.14C33.0874 15.2847 32.4763 13.4957 31.5349 11.875C30.5934 10.2544 29.34 8.83394 27.8462 7.69474C26.3523 6.55555 24.6474 5.71992 22.8286 5.23559C21.8725 4.98097 21.3051 4.00424 21.5613 3.05401Z" fill="url(#paint1_linear_871_10336)"/>
<path fill-rule="evenodd" clip-rule="evenodd" d="M4.00061 24.8698C3.04449 25.1244 2.06172 24.5605 1.80553 23.6102C1.19636 21.3508 1.04094 18.9942 1.34816 16.675C1.65537 14.3559 2.4192 12.1196 3.59602 10.0938C4.77285 8.06799 6.33963 6.29242 8.20691 4.86842C10.0742 3.44442 12.2054 2.3999 14.4789 1.79447C15.435 1.53986 16.4178 2.10377 16.6739 3.05401C16.9301 4.00424 16.3627 4.98097 15.4066 5.23558C13.5878 5.71992 11.8829 6.55554 10.3891 7.69474C8.89523 8.83394 7.6418 10.2544 6.70034 11.875C5.75888 13.4957 5.14782 15.2847 4.90205 17.14C4.65628 18.9954 4.78061 20.8806 5.26795 22.6882C5.52414 23.6384 4.95673 24.6152 4.00061 24.8698Z" fill="url(#paint2_linear_871_10336)"/>
<path fill-rule="evenodd" clip-rule="evenodd" d="M17.4279 8.08405C18.3611 7.15655 19.8742 7.15655 20.8075 8.08405L30.1012 17.3206C31.0345 18.2481 31.0345 19.7519 30.1012 20.6794L20.8075 29.916C19.8742 30.8435 18.3611 30.8435 17.4279 29.916L8.13413 20.6794C7.20089 19.7519 7.20089 18.2481 8.13413 17.3206L17.4279 8.08405ZM19.1177 24.9375C22.4172 24.9375 25.0919 22.2792 25.0919 19C25.0919 15.7208 22.4172 13.0625 19.1177 13.0625C15.8182 13.0625 13.1434 15.7208 13.1434 19C13.1434 22.2792 15.8182 24.9375 19.1177 24.9375Z" fill="url(#paint3_linear_871_10336)"/>
<defs>
<linearGradient id="paint0_linear_871_10336" x1="5.91931" y1="28.5546" x2="31.9205" y2="37.9112" gradientUnits="userSpaceOnUse">
<stop stop-color="#7752FF"/>
<stop offset="0.5" stop-color="#F44BFF"/>
<stop offset="1" stop-color="#F78E09"/>
</linearGradient>
<linearGradient id="paint1_linear_871_10336" x1="21.4998" y1="1.73334" x2="38.6921" y2="3.02996" gradientUnits="userSpaceOnUse">
<stop stop-color="#7752FF"/>
<stop offset="0.5" stop-color="#F44BFF"/>
<stop offset="1" stop-color="#F78E09"/>
</linearGradient>
<linearGradient id="paint2_linear_871_10336" x1="1.19482" y1="1.73334" x2="18.3872" y2="3.02996" gradientUnits="userSpaceOnUse">
<stop stop-color="#7752FF"/>
<stop offset="0.5" stop-color="#F44BFF"/>
<stop offset="1" stop-color="#F78E09"/>
</linearGradient>
<linearGradient id="paint3_linear_871_10336" x1="7.4342" y1="7.38843" x2="33.1024" y2="10.296" gradientUnits="userSpaceOnUse">
<stop stop-color="#7752FF"/>
<stop offset="0.5" stop-color="#F44BFF"/>
<stop offset="1" stop-color="#F78E09"/>
</linearGradient>
</defs>
</svg>
